# xmcd
#
# Track frame offsets:
#	150
#	24890
#	40171
#	54509
#	86119
#	106294
#	133378
#	150376
#	172661
#	193293
#	213687
#	230424
#	244329
#	279001
#	318649
#	334495
#
# Disc length: 4629 seconds
#
# Revision: 1
# Processed by: cddbd v1.4PL0 Copyright (c) Steve Scherf et al.
# Submitted via: audiograbber 1.80
#
DISCID=e2121310
DTITLE=Peter Green - The Perer Green Collection
DYEAR=1900
DGENRE=
TTITLE0=Last Train to San Antone
TTITLE1=What am I doing here
TTITLE2=Apostle
TTITLE3=Little Dreamer
TTITLE4=Loser two times
TTITLE5=The Clown
TTITLE6=In the skies
TTITLE7=Carry my love
TTITLE8=Just for you
TTITLE9=Six string guitar
TTITLE10=Corner of my mind
TTITLE11=Seven stars
TTITLE12=A fool no more
TTITLE13=White Sky
TTITLE14=Promised land
TTITLE15=Man of the world
EXTD=Fuel 2000 Records
EXTT0=
EXTT1=
EXTT2=
EXTT3=
EXTT4=
EXTT5=
EXTT6=
EXTT7=
EXTT8=
EXTT9=
EXTT10=
EXTT11=
EXTT12=
EXTT13=
EXTT14=
EXTT15=
PLAYORDER=
